<svg width="648" height="648" viewBox="0 0 648 648" fill="none" xmlns="http://www.w3.org/2000/svg">
<g id="ggcheck" clip-path="url(#clip0_2:104)">
<g id="hex background">
<path id="Vector" d="M48.78 165.21V482.93L323.93 641.79L599.08 482.93V165.21L323.93 6.35001L48.78 165.21Z" fill="#F2F2F2"/>
</g>
<mask id="mask0_2:104" style="mask-type:alpha" maskUnits="userSpaceOnUse" x="43" y="-1" width="562" height="650">
<path id="hex border" d="M48.78 165.21V482.93L323.93 641.79L599.08 482.93V165.21L323.93 6.35001L48.78 165.21Z" fill="white" stroke="#5E6A97" stroke-width="11"/>
</mask>
<g mask="url(#mask0_2:104)">
<g id="Lines - Horizontal">
<line id="Line 1" x1="-10" y1="135.5" x2="638" y2="135.5" stroke="white" stroke-width="3"/>
<line id="Line 2" x1="-10" y1="260.5" x2="638" y2="260.5" stroke="white" stroke-width="3"/>
<line id="Line 3" x1="-10" y1="385.5" x2="638" y2="385.5" stroke="white" stroke-width="3"/>
<line id="Line 4" x1="-15" y1="510.5" x2="633" y2="510.5" stroke="white" stroke-width="3"/>
</g>
<g id="Lines - Vertical">
<line id="Line 5" x1="513.5" y1="5" x2="513.5" y2="653" stroke="white" stroke-width="3"/>
<line id="Line 6" x1="388.5" y1="5" x2="388.5" y2="653" stroke="white" stroke-width="3"/>
<line id="Line 7" x1="263.5" y1="5" x2="263.5" y2="653" stroke="white" stroke-width="3"/>
<line id="Line 8" x1="138.5" y1="6.55671e-08" x2="138.5" y2="648" stroke="white" stroke-width="3"/>
</g>
<g id="points">
<path id="Vector_2" d="M89.8424 417.33C88.6006 412.771 86.3944 408.532 83.3728 404.899C80.3513 401.266 76.585 398.324 72.3286 396.273C68.0722 394.221 63.4249 393.108 58.7011 393.007C53.9772 392.907 49.2869 393.823 44.9474 395.692C40.6078 397.561 36.7202 400.34 33.5474 403.842C30.3746 407.343 27.9906 411.485 26.5566 415.988C25.1226 420.491 24.6721 425.249 25.2354 429.94C25.7988 434.632 27.363 439.148 29.8222 443.183C30.027 443.516 30.2404 443.849 30.4537 444.173C34.776 450.724 41.2912 455.52 48.8301 457.701C56.369 459.881 64.4381 459.303 71.5896 456.071C78.741 452.839 84.5066 447.164 87.8518 440.064C91.197 432.964 91.9027 424.904 89.8424 417.33V417.33Z" fill="#A8D6FF"/>
<path id="Vector_3" d="M208.842 332.33C207.601 327.771 205.394 323.532 202.373 319.899C199.351 316.266 195.585 313.324 191.329 311.273C187.072 309.221 182.425 308.108 177.701 308.007C172.977 307.907 168.287 308.823 163.947 310.692C159.608 312.561 155.72 315.34 152.547 318.842C149.375 322.343 146.991 326.485 145.557 330.988C144.123 335.491 143.672 340.249 144.235 344.94C144.799 349.632 146.363 354.148 148.822 358.183C149.027 358.516 149.24 358.849 149.454 359.173C153.776 365.724 160.291 370.52 167.83 372.701C175.369 374.881 183.438 374.303 190.59 371.071C197.741 367.839 203.507 362.164 206.852 355.064C210.197 347.964 210.903 339.904 208.842 332.33V332.33Z" fill="#51A7F9"/>
<path id="Vector_4" d="M336 264.095C336.022 256.488 333.376 249.108 328.51 243.202C323.643 237.297 316.855 233.228 309.293 231.686C301.732 230.143 293.862 231.221 287.015 234.737C280.168 238.253 274.764 243.992 271.717 250.981C268.671 257.971 268.169 265.782 270.297 273.094C272.425 280.406 277.052 286.769 283.395 291.107C289.738 295.445 297.407 297.492 305.106 296.9C312.804 296.308 320.059 293.115 325.642 287.861C328.909 284.795 331.512 281.108 333.292 277.023C335.073 272.938 335.994 268.54 336 264.095V264.095Z" fill="#0365C0"/>
<path id="Vector_5" d="M400.621 346.32C396.725 341.91 391.735 338.603 386.153 336.734C380.572 334.865 374.596 334.499 368.828 335.674C363.06 336.848 357.704 339.521 353.299 343.424C348.894 347.326 345.596 352.321 343.736 357.903C343.407 358.89 343.122 359.903 342.87 360.933C341.728 365.844 341.71 370.949 342.817 375.868C343.925 380.786 346.129 385.392 349.266 389.34C352.403 393.288 356.392 396.477 360.934 398.669C365.477 400.861 370.456 402 375.5 402C380.544 402 385.523 400.861 390.066 398.669C394.608 396.477 398.597 393.288 401.734 389.34C404.871 385.392 407.075 380.786 408.183 375.868C409.29 370.949 409.272 365.844 408.13 360.933C407.887 359.903 407.61 358.899 407.264 357.903C406.917 356.908 406.579 355.999 406.172 355.072C404.788 351.884 402.915 348.931 400.621 346.32V346.32Z" fill="#164F86"/>
<path id="Vector_6" d="M525 294.001C525 288.261 523.503 282.62 520.657 277.636C517.811 272.651 513.714 268.495 508.77 265.578C503.827 262.662 498.208 261.085 492.469 261.003C486.73 260.922 481.069 262.339 476.044 265.115C475.016 265.686 474.019 266.313 473.058 266.992C468.716 270.033 465.172 274.075 462.725 278.777C460.278 283.479 459 288.701 459 294.001C459 299.302 460.278 304.524 462.725 309.226C465.172 313.927 468.716 317.97 473.058 321.01C474.019 321.687 475.016 322.311 476.044 322.879C481.068 325.657 486.729 327.076 492.468 326.997C498.208 326.917 503.827 325.341 508.771 322.425C513.715 319.509 517.813 315.353 520.659 310.368C523.505 305.383 525.001 299.742 525 294.001V294.001Z" fill="#002452"/>
<path id="Vector_7" d="M631 227.001C631 221.261 629.503 215.62 626.657 210.636C623.811 205.651 619.714 201.495 614.77 198.578C609.827 195.662 604.208 194.085 598.469 194.003C592.73 193.922 587.069 195.339 582.044 198.115C581.016 198.686 580.019 199.313 579.058 199.992C574.716 203.033 571.172 207.075 568.725 211.777C566.278 216.479 565 221.701 565 227.001C565 232.302 566.278 237.524 568.725 242.226C571.172 246.927 574.716 250.97 579.058 254.01C580.019 254.687 581.016 255.311 582.044 255.879C587.068 258.657 592.729 260.076 598.468 259.997C604.208 259.917 609.827 258.341 614.771 255.425C619.715 252.509 623.813 248.353 626.659 243.368C629.505 238.383 631.001 232.742 631 227.001V227.001Z" fill="#000643"/>
<path id="Vector_8" d="M148.999 359L145.975 361.027L83 403.2C85.2583 405.824 87.0951 408.794 88.4424 412L156 366.769C153.279 364.57 150.916 361.948 148.999 359V359Z" fill="#424242"/>
<path id="Vector_9" d="M405.555 355L467 316.509C464.688 313.978 462.793 311.107 461.384 308L400 346.457C402.294 349.003 404.168 351.885 405.555 355V355Z" fill="#424242"/>
<path id="Vector_10" d="M522.526 281L574 248.589C571.701 246.026 569.817 243.129 568.413 240L517 272.334C519.287 274.922 521.152 277.846 522.526 281V281Z" fill="#424242"/>
<path id="Vector_11" d="M361 339.031L340.441 309.478L337.403 305.103L325.548 288C323.026 290.413 320.142 292.418 317 293.943L337.403 323.34L340.441 327.672L352.452 345C354.974 342.58 357.858 340.566 361 339.031V339.031Z" fill="#424242"/>
<path id="Vector_12" d="M209.257 332L278 286.55C275.698 284.009 273.802 281.125 272.381 278L205.298 322.364L205 322.561C206.906 325.462 208.343 328.648 209.257 332V332Z" fill="#424242"/>
</g>
<path id="hex border_2" d="M48.78 165.21V482.93L323.93 641.79L599.08 482.93V165.21L323.93 6.35001L48.78 165.21Z" stroke="#424242" stroke-width="11"/>
<path id="www.rstudio.com" d="M328.494 627.994L321.296 620.926L322.75 620.086L326.808 624.233C327.133 624.584 327.447 624.927 327.747 625.261C328.048 625.595 328.352 625.936 328.66 626.282L328.729 626.242C328.595 625.796 328.464 625.355 328.336 624.921C328.202 624.475 328.073 624.026 327.951 623.573L326.44 617.956L327.825 617.156L331.952 621.263C332.289 621.607 332.614 621.943 332.926 622.271C333.25 622.592 333.572 622.922 333.891 623.262L333.96 623.222C333.826 622.776 333.689 622.339 333.55 621.911C333.411 621.483 333.27 621.041 333.13 620.583L331.549 615.006L332.9 614.226L335.509 623.944L333.777 624.944L329.954 621.123C329.617 620.779 329.289 620.437 328.97 620.098C328.662 619.752 328.333 619.396 327.983 619.028L327.913 619.068C328.068 619.549 328.215 620.018 328.356 620.476C328.49 620.921 328.617 621.38 328.734 621.851L330.157 627.034L328.494 627.994ZM340.32 621.166L333.122 614.098L334.576 613.258L338.634 617.406C338.959 617.756 339.273 618.099 339.573 618.433C339.874 618.768 340.178 619.108 340.486 619.454L340.555 619.414C340.421 618.968 340.29 618.528 340.162 618.093C340.028 617.647 339.899 617.198 339.777 616.746L338.266 611.128L339.651 610.328L343.778 614.436C344.115 614.78 344.44 615.116 344.752 615.443C345.076 615.764 345.398 616.095 345.717 616.434L345.786 616.394C345.652 615.948 345.515 615.511 345.376 615.083C345.237 614.656 345.096 614.213 344.956 613.756L343.375 608.178L344.726 607.398L347.335 617.116L345.603 618.116L341.78 614.296C341.443 613.951 341.115 613.61 340.796 613.27C340.488 612.925 340.159 612.568 339.809 612.201L339.739 612.241C339.894 612.721 340.041 613.19 340.182 613.648C340.316 614.094 340.442 614.552 340.56 615.023L341.983 620.206L340.32 621.166ZM352.146 614.338L344.948 607.271L346.402 606.431L350.46 610.578C350.785 610.929 351.098 611.271 351.399 611.606C351.7 611.94 352.004 612.28 352.312 612.626L352.381 612.586C352.247 612.14 352.116 611.7 351.988 611.266C351.854 610.82 351.725 610.37 351.603 609.918L350.092 604.301L351.477 603.501L355.604 607.608C355.941 607.952 356.266 608.288 356.578 608.616C356.902 608.937 357.224 609.267 357.543 609.606L357.612 609.566C357.478 609.12 357.341 608.683 357.202 608.256C357.063 607.828 356.922 607.385 356.781 606.928L355.201 601.351L356.552 600.571L359.161 610.288L357.429 611.288L353.606 607.468C353.269 607.124 352.941 606.782 352.622 606.443C352.314 606.097 351.985 605.74 351.635 605.373L351.565 605.413C351.72 605.894 351.867 606.363 352.008 606.82C352.142 607.266 352.268 607.724 352.386 608.195L353.809 613.378L352.146 614.338ZM362.792 608.469C362.504 608.635 362.199 608.681 361.878 608.604C361.561 608.51 361.313 608.307 361.133 607.995C360.94 607.66 360.885 607.338 360.968 607.028C361.056 606.7 361.244 606.453 361.532 606.286C361.81 606.126 362.106 606.094 362.423 606.188C362.744 606.264 363.001 606.47 363.194 606.805C363.374 607.117 363.42 607.436 363.333 607.764C363.25 608.074 363.07 608.309 362.792 608.469ZM365.635 606.551L360.775 598.133L361.952 597.453L362.954 598.907L363.006 598.877C362.988 598.179 363.091 597.558 363.315 597.013C363.551 596.461 363.911 596.045 364.396 595.765C364.731 595.572 365.064 595.456 365.397 595.418L365.839 596.825C365.674 596.859 365.527 596.898 365.398 596.941C365.27 596.985 365.119 597.057 364.945 597.157C364.587 597.363 364.295 597.724 364.07 598.24C363.855 598.748 363.81 599.444 363.935 600.327L367.055 605.731L365.635 606.551ZM373.285 602.411C372.685 602.757 372.05 602.978 371.38 603.072C370.711 603.166 370.078 603.162 369.48 603.06L369.64 601.698C370.183 601.785 370.698 601.81 371.186 601.775C371.685 601.733 372.189 601.566 372.697 601.272C373.251 600.952 373.594 600.585 373.724 600.171C373.855 599.757 373.813 599.365 373.6 598.996C373.473 598.777 373.305 598.619 373.097 598.524C372.888 598.429 372.658 598.377 372.406 598.369C372.16 598.342 371.894 598.349 371.61 598.39C371.326 598.431 371.042 598.471 370.757 598.512C370.397 598.582 370.03 598.64 369.657 598.686C369.276 598.721 368.912 598.716 368.563 598.671C368.218 598.608 367.898 598.493 367.601 598.326C367.304 598.158 367.053 597.896 366.846 597.538C366.653 597.203 366.536 596.854 366.496 596.492C366.462 596.112 366.505 595.748 366.628 595.4C366.755 595.034 366.965 594.69 367.256 594.368C367.541 594.034 367.908 593.737 368.358 593.477C368.89 593.171 369.428 592.983 369.973 592.914C370.53 592.839 371.047 592.841 371.524 592.92L371.368 594.211C370.953 594.158 370.549 594.152 370.158 594.194C369.766 594.235 369.385 594.362 369.016 594.576C368.485 594.882 368.162 595.23 368.048 595.62C367.945 596.002 367.987 596.355 368.174 596.678C368.287 596.875 368.439 597.018 368.63 597.108C368.814 597.186 369.026 597.233 369.266 597.249C369.499 597.253 369.752 597.238 370.025 597.203C370.302 597.151 370.589 597.101 370.885 597.053C371.252 596.995 371.622 596.943 371.995 596.897C372.381 596.844 372.751 596.846 373.107 596.902C373.456 596.947 373.786 597.064 374.096 597.255C374.417 597.439 374.692 597.727 374.918 598.119C375.118 598.466 375.236 598.829 375.27 599.209C375.317 599.583 375.274 599.962 375.141 600.346C375.021 600.724 374.801 601.089 374.482 601.443C374.18 601.801 373.782 602.124 373.285 602.411ZM380.047 598.507C379.597 598.767 379.176 598.917 378.784 598.959C378.404 598.994 378.046 598.946 377.709 598.817C377.385 598.681 377.082 598.464 376.801 598.164C376.52 597.864 376.26 597.506 376.02 597.091L373.33 592.431L372.083 593.151L371.463 592.078L372.729 591.231L371.542 588.775L372.737 588.085L374.097 590.441L376.366 589.131L377.036 590.291L374.767 591.601L377.467 596.278C377.767 596.798 378.093 597.148 378.445 597.33C378.801 597.494 379.221 597.436 379.706 597.156C379.857 597.069 380.005 596.953 380.151 596.807C380.298 596.661 380.424 596.519 380.529 596.381L381.426 597.295C381.242 597.509 381.028 597.725 380.784 597.943C380.558 598.165 380.313 598.353 380.047 598.507ZM385.103 595.588C384.202 596.108 383.384 596.211 382.648 595.896C381.924 595.575 381.249 594.872 380.622 593.787L377.542 588.452L378.98 587.622L381.95 592.766C382.41 593.563 382.864 594.07 383.314 594.288C383.768 594.488 384.272 594.428 384.826 594.108C385.265 593.855 385.588 593.522 385.797 593.109C385.998 592.685 386.158 592.108 386.275 591.378L382.825 585.402L384.245 584.582L389.105 593L387.928 593.68L387.046 592.434L386.994 592.464C386.868 593.152 386.666 593.762 386.387 594.292C386.12 594.816 385.692 595.248 385.103 595.588ZM394.334 590.258C393.272 590.872 392.203 590.981 391.128 590.585C390.064 590.183 389.126 589.278 388.312 587.869C387.919 587.188 387.664 586.519 387.547 585.863C387.435 585.189 387.436 584.564 387.551 583.99C387.666 583.416 387.883 582.898 388.201 582.437C388.52 581.975 388.922 581.605 389.407 581.325C389.892 581.045 390.364 580.888 390.822 580.855C391.279 580.821 391.78 580.848 392.323 580.935L391.423 579.537L389.553 576.298L390.991 575.468L398.111 587.8L396.933 588.48L396.242 587.563L396.19 587.593C396.042 588.11 395.818 588.616 395.52 589.112C395.226 589.589 394.83 589.972 394.334 590.258ZM393.956 588.883C394.348 588.656 394.664 588.351 394.904 587.966C395.137 587.57 395.314 587.075 395.433 586.483L392.893 582.083C392.349 581.967 391.872 581.941 391.464 582.008C391.061 582.056 390.686 582.18 390.34 582.38C390.005 582.573 389.734 582.837 389.527 583.172C389.325 583.489 389.198 583.855 389.145 584.271C389.085 584.674 389.106 585.109 389.205 585.575C389.305 586.041 389.495 586.517 389.775 587.002C390.361 588.018 391.02 588.692 391.751 589.024C392.482 589.357 393.217 589.31 393.956 588.883ZM400.34 586.514L395.48 578.096L396.9 577.276L401.76 585.694L400.34 586.514ZM395.207 575.944C394.93 576.104 394.644 576.154 394.347 576.094C394.063 576.027 393.843 575.861 393.69 575.596C393.53 575.319 393.496 575.046 393.587 574.778C393.684 574.491 393.87 574.268 394.147 574.108C394.425 573.948 394.705 573.901 394.99 573.968C395.28 574.016 395.505 574.179 395.665 574.456C395.818 574.721 395.847 574.997 395.75 575.284C395.665 575.564 395.485 575.784 395.207 575.944ZM407.39 582.72C406.87 583.02 406.317 583.209 405.73 583.286C405.155 583.356 404.582 583.31 404.01 583.147C403.433 582.973 402.877 582.678 402.344 582.262C401.817 581.827 401.353 581.264 400.953 580.571C400.546 579.867 400.29 579.183 400.184 578.52C400.084 577.84 400.102 577.205 400.24 576.617C400.378 576.03 400.622 575.504 400.97 575.041C401.33 574.572 401.77 574.187 402.29 573.887C402.809 573.587 403.357 573.402 403.932 573.331C404.519 573.254 405.101 573.303 405.679 573.477C406.257 573.652 406.81 573.956 407.338 574.39C407.871 574.806 408.34 575.367 408.747 576.071C409.147 576.764 409.397 577.451 409.498 578.132C409.603 578.794 409.587 579.42 409.449 580.007C409.304 580.583 409.052 581.106 408.692 581.576C408.343 582.039 407.909 582.42 407.39 582.72ZM406.71 581.543C407.068 581.336 407.353 581.071 407.567 580.747C407.774 580.413 407.901 580.046 407.949 579.649C408.002 579.234 407.973 578.797 407.861 578.337C407.75 577.878 407.555 577.406 407.275 576.921C406.995 576.436 406.684 576.031 406.341 575.705C405.993 575.367 405.625 575.117 405.239 574.955C404.865 574.787 404.484 574.714 404.097 574.737C403.703 574.749 403.328 574.858 402.97 575.065C402.612 575.271 402.329 575.542 402.123 575.877C401.909 576.201 401.776 576.57 401.723 576.985C401.682 577.394 401.72 577.834 401.838 578.305C401.949 578.764 402.145 579.236 402.425 579.721C402.705 580.206 403.016 580.611 403.358 580.937C403.7 581.263 404.059 581.511 404.433 581.679C404.812 581.83 405.199 581.899 405.593 581.887C405.979 581.864 406.352 581.749 406.71 581.543ZM413.473 579.208C413.185 579.375 412.88 579.42 412.558 579.344C412.242 579.249 411.994 579.046 411.814 578.734C411.621 578.399 411.565 578.077 411.648 577.768C411.736 577.44 411.925 577.192 412.213 577.026C412.49 576.866 412.787 576.833 413.103 576.928C413.425 577.004 413.682 577.209 413.875 577.544C414.055 577.856 414.101 578.176 414.013 578.504C413.93 578.813 413.75 579.048 413.473 579.208ZM419.575 575.685C419.021 576.005 418.444 576.207 417.846 576.291C417.248 576.375 416.663 576.335 416.092 576.172C415.525 575.991 414.981 575.689 414.46 575.267C413.944 574.826 413.486 574.259 413.086 573.566C412.679 572.862 412.429 572.175 412.335 571.505C412.234 570.824 412.259 570.187 412.408 569.592C412.558 568.998 412.818 568.463 413.19 567.986C413.573 567.503 414.036 567.105 414.579 566.792C415.133 566.472 415.663 566.297 416.169 566.266C416.675 566.236 417.155 566.267 417.608 566.359L417.421 567.714C417.052 567.635 416.689 567.606 416.331 567.628C415.986 567.642 415.646 567.746 415.311 567.94C414.93 568.16 414.624 568.444 414.394 568.792C414.158 569.129 414.007 569.508 413.943 569.93C413.879 570.352 413.894 570.805 413.989 571.29C414.088 571.756 414.278 572.231 414.558 572.716C414.838 573.201 415.155 573.603 415.509 573.922C415.862 574.242 416.232 574.482 416.618 574.644C417.009 574.788 417.413 574.847 417.83 574.822C418.24 574.786 418.635 574.658 419.016 574.438C419.409 574.211 419.72 573.923 419.95 573.575C420.185 573.209 420.368 572.833 420.501 572.449L421.674 573.042C421.486 573.596 421.218 574.105 420.87 574.568C420.515 575.02 420.083 575.392 419.575 575.685ZM426.444 571.72C425.924 572.02 425.371 572.208 424.784 572.285C424.209 572.356 423.636 572.309 423.064 572.147C422.486 571.972 421.931 571.677 421.398 571.261C420.87 570.827 420.407 570.263 420.007 569.57C419.6 568.866 419.344 568.182 419.238 567.52C419.138 566.839 419.156 566.204 419.294 565.617C419.432 565.029 419.676 564.504 420.024 564.041C420.384 563.571 420.824 563.186 421.344 562.886C421.863 562.586 422.411 562.401 422.986 562.331C423.573 562.254 424.155 562.302 424.733 562.477C425.311 562.651 425.864 562.955 426.392 563.39C426.924 563.806 427.394 564.366 427.801 565.07C428.201 565.763 428.451 566.45 428.552 567.131C428.657 567.794 428.641 568.419 428.503 569.007C428.358 569.583 428.106 570.106 427.746 570.575C427.397 571.038 426.963 571.42 426.444 571.72ZM425.764 570.542C426.122 570.335 426.407 570.07 426.621 569.747C426.828 569.412 426.955 569.046 427.003 568.649C427.056 568.233 427.027 567.796 426.915 567.337C426.804 566.877 426.609 566.405 426.329 565.92C426.049 565.435 425.737 565.03 425.395 564.704C425.047 564.366 424.679 564.117 424.293 563.955C423.919 563.786 423.538 563.713 423.151 563.736C422.757 563.748 422.382 563.857 422.024 564.064C421.666 564.271 421.383 564.542 421.176 564.876C420.963 565.2 420.83 565.569 420.777 565.985C420.736 566.393 420.774 566.833 420.892 567.304C421.003 567.763 421.199 568.235 421.479 568.72C421.759 569.205 422.07 569.611 422.412 569.937C422.754 570.263 423.112 570.51 423.487 570.679C423.866 570.829 424.253 570.898 424.646 570.887C425.033 570.863 425.406 570.749 425.764 570.542ZM431.831 568.332L426.971 559.914L428.149 559.234L428.971 560.377L429.022 560.347C429.159 559.729 429.364 559.164 429.638 558.652C429.916 558.122 430.31 557.71 430.818 557.416C431.464 557.043 432.05 556.897 432.575 556.979C433.104 557.043 433.602 557.279 434.069 557.687C434.228 556.949 434.443 556.309 434.715 555.767C434.992 555.206 435.39 554.776 435.91 554.476C436.776 553.976 437.577 553.883 438.313 554.198C439.06 554.505 439.747 555.202 440.374 556.287L443.454 561.622L442.033 562.442L439.063 557.298C438.603 556.501 438.146 556.003 437.692 555.803C437.231 555.592 436.736 555.639 436.204 555.946C435.569 556.313 435.115 557.152 434.841 558.465L438.361 564.562L436.941 565.382L433.971 560.238C433.511 559.441 433.054 558.943 432.6 558.743C432.139 558.532 431.638 558.583 431.095 558.896C430.46 559.263 430.005 560.102 429.732 561.415L433.252 567.512L431.831 568.332Z" fill="#424242"/>
<path id="ggcheck_2" d="M180.03 534.4C177.03 534.4 174.296 534.1 171.83 533.5C169.363 532.967 167.23 532.133 165.43 531C163.696 529.867 162.33 528.5 161.33 526.9C160.396 525.3 159.93 523.433 159.93 521.3C159.93 519.233 160.563 517.267 161.83 515.4C163.096 513.533 164.83 511.833 167.03 510.3V509.9C165.83 509.167 164.796 508.167 163.93 506.9C163.13 505.567 162.73 503.933 162.73 502C162.73 499.933 163.296 498.133 164.43 496.6C165.563 495.067 166.763 493.867 168.03 493V492.6C166.43 491.267 164.963 489.5 163.63 487.3C162.363 485.033 161.73 482.433 161.73 479.5C161.73 476.833 162.196 474.433 163.13 472.3C164.13 470.167 165.463 468.367 167.13 466.9C168.796 465.367 170.73 464.2 172.93 463.4C175.196 462.6 177.563 462.2 180.03 462.2C181.363 462.2 182.596 462.333 183.73 462.6C184.93 462.8 185.996 463.067 186.93 463.4H203.83V469.7H193.83C194.963 470.833 195.896 472.267 196.63 474C197.43 475.733 197.83 477.633 197.83 479.7C197.83 482.3 197.363 484.667 196.43 486.8C195.496 488.867 194.23 490.633 192.63 492.1C191.03 493.5 189.13 494.6 186.93 495.4C184.796 496.2 182.496 496.6 180.03 496.6C178.83 496.6 177.596 496.467 176.33 496.2C175.063 495.867 173.863 495.433 172.73 494.9C171.863 495.633 171.13 496.467 170.53 497.4C169.93 498.267 169.63 499.367 169.63 500.7C169.63 502.233 170.23 503.5 171.43 504.5C172.63 505.5 174.896 506 178.23 506H187.63C193.296 506 197.53 506.933 200.33 508.8C203.196 510.6 204.63 513.533 204.63 517.6C204.63 519.867 204.063 522 202.93 524C201.796 526.067 200.163 527.867 198.03 529.4C195.896 530.933 193.296 532.133 190.23 533C187.23 533.933 183.83 534.4 180.03 534.4ZM180.03 491.1C181.43 491.1 182.73 490.833 183.93 490.3C185.196 489.767 186.296 489 187.23 488C188.23 487 188.996 485.8 189.53 484.4C190.063 482.933 190.33 481.3 190.33 479.5C190.33 475.9 189.33 473.133 187.33 471.2C185.33 469.2 182.896 468.2 180.03 468.2C177.163 468.2 174.73 469.2 172.73 471.2C170.73 473.133 169.73 475.9 169.73 479.5C169.73 481.3 169.996 482.933 170.53 484.4C171.063 485.8 171.796 487 172.73 488C173.73 489 174.83 489.767 176.03 490.3C177.296 490.833 178.63 491.1 180.03 491.1ZM181.23 528.7C183.563 528.7 185.663 528.4 187.53 527.8C189.463 527.267 191.096 526.533 192.43 525.6C193.763 524.733 194.796 523.7 195.53 522.5C196.263 521.3 196.63 520.067 196.63 518.8C196.63 516.533 195.796 514.967 194.13 514.1C192.463 513.233 190.03 512.8 186.83 512.8H178.43C177.496 512.8 176.463 512.733 175.33 512.6C174.263 512.533 173.196 512.333 172.13 512C170.396 513.267 169.13 514.6 168.33 516C167.53 517.4 167.13 518.8 167.13 520.2C167.13 522.8 168.363 524.867 170.83 526.4C173.363 527.933 176.83 528.7 181.23 528.7ZM231.42 534.4C228.42 534.4 225.687 534.1 223.22 533.5C220.754 532.967 218.62 532.133 216.82 531C215.087 529.867 213.72 528.5 212.72 526.9C211.787 525.3 211.32 523.433 211.32 521.3C211.32 519.233 211.954 517.267 213.22 515.4C214.487 513.533 216.22 511.833 218.42 510.3V509.9C217.22 509.167 216.187 508.167 215.32 506.9C214.52 505.567 214.12 503.933 214.12 502C214.12 499.933 214.687 498.133 215.82 496.6C216.954 495.067 218.154 493.867 219.42 493V492.6C217.82 491.267 216.354 489.5 215.02 487.3C213.754 485.033 213.12 482.433 213.12 479.5C213.12 476.833 213.587 474.433 214.52 472.3C215.52 470.167 216.854 468.367 218.52 466.9C220.187 465.367 222.12 464.2 224.32 463.4C226.587 462.6 228.954 462.2 231.42 462.2C232.754 462.2 233.987 462.333 235.12 462.6C236.32 462.8 237.387 463.067 238.32 463.4H255.22V469.7H245.22C246.354 470.833 247.287 472.267 248.02 474C248.82 475.733 249.22 477.633 249.22 479.7C249.22 482.3 248.754 484.667 247.82 486.8C246.887 488.867 245.62 490.633 244.02 492.1C242.42 493.5 240.52 494.6 238.32 495.4C236.187 496.2 233.887 496.6 231.42 496.6C230.22 496.6 228.987 496.467 227.72 496.2C226.454 495.867 225.254 495.433 224.12 494.9C223.254 495.633 222.52 496.467 221.92 497.4C221.32 498.267 221.02 499.367 221.02 500.7C221.02 502.233 221.62 503.5 222.82 504.5C224.02 505.5 226.287 506 229.62 506H239.02C244.687 506 248.92 506.933 251.72 508.8C254.587 510.6 256.02 513.533 256.02 517.6C256.02 519.867 255.454 522 254.32 524C253.187 526.067 251.554 527.867 249.42 529.4C247.287 530.933 244.687 532.133 241.62 533C238.62 533.933 235.22 534.4 231.42 534.4ZM231.42 491.1C232.82 491.1 234.12 490.833 235.32 490.3C236.587 489.767 237.687 489 238.62 488C239.62 487 240.387 485.8 240.92 484.4C241.454 482.933 241.72 481.3 241.72 479.5C241.72 475.9 240.72 473.133 238.72 471.2C236.72 469.2 234.287 468.2 231.42 468.2C228.554 468.2 226.12 469.2 224.12 471.2C222.12 473.133 221.12 475.9 221.12 479.5C221.12 481.3 221.387 482.933 221.92 484.4C222.454 485.8 223.187 487 224.12 488C225.12 489 226.22 489.767 227.42 490.3C228.687 490.833 230.02 491.1 231.42 491.1ZM232.62 528.7C234.954 528.7 237.054 528.4 238.92 527.8C240.854 527.267 242.487 526.533 243.82 525.6C245.154 524.733 246.187 523.7 246.92 522.5C247.654 521.3 248.02 520.067 248.02 518.8C248.02 516.533 247.187 514.967 245.52 514.1C243.854 513.233 241.42 512.8 238.22 512.8H229.82C228.887 512.8 227.854 512.733 226.72 512.6C225.654 512.533 224.587 512.333 223.52 512C221.787 513.267 220.52 514.6 219.72 516C218.92 517.4 218.52 518.8 218.52 520.2C218.52 522.8 219.754 524.867 222.22 526.4C224.754 527.933 228.22 528.7 232.62 528.7ZM284.244 513.2C281.044 513.2 278.044 512.633 275.244 511.5C272.444 510.367 270.01 508.733 267.944 506.6C265.944 504.4 264.344 501.733 263.144 498.6C262.01 495.4 261.444 491.8 261.444 487.8C261.444 483.733 262.077 480.133 263.344 477C264.61 473.8 266.31 471.1 268.444 468.9C270.577 466.7 273.044 465.033 275.844 463.9C278.71 462.767 281.71 462.2 284.844 462.2C288.044 462.2 290.777 462.767 293.044 463.9C295.31 465.033 297.31 466.367 299.044 467.9L294.844 473.3C293.444 472.033 291.944 471 290.344 470.2C288.81 469.4 287.077 469 285.144 469C282.944 469 280.91 469.467 279.044 470.4C277.177 471.267 275.577 472.533 274.244 474.2C272.91 475.867 271.844 477.867 271.044 480.2C270.31 482.467 269.944 485 269.944 487.8C269.944 490.6 270.31 493.133 271.044 495.4C271.777 497.667 272.777 499.633 274.044 501.3C275.377 502.9 276.977 504.167 278.844 505.1C280.71 505.967 282.744 506.4 284.944 506.4C287.21 506.4 289.277 505.933 291.144 505C293.077 504 294.81 502.833 296.344 501.5L299.944 507C297.744 508.933 295.31 510.467 292.644 511.6C289.977 512.667 287.177 513.2 284.244 513.2ZM311.649 512V440.8H319.849V460.2L319.549 470.2C321.883 468 324.316 466.133 326.849 464.6C329.383 463 332.349 462.2 335.749 462.2C340.883 462.2 344.616 463.8 346.949 467C349.349 470.2 350.549 474.933 350.549 481.2V512H342.349V482.3C342.349 477.7 341.616 474.4 340.149 472.4C338.683 470.333 336.349 469.3 333.149 469.3C330.616 469.3 328.383 469.933 326.449 471.2C324.516 472.467 322.316 474.333 319.849 476.8V512H311.649ZM386.744 513.2C383.477 513.2 380.41 512.633 377.544 511.5C374.744 510.3 372.277 508.633 370.144 506.5C368.077 504.3 366.444 501.633 365.244 498.5C364.044 495.367 363.444 491.8 363.444 487.8C363.444 483.8 364.044 480.233 365.244 477.1C366.51 473.9 368.144 471.2 370.144 469C372.21 466.8 374.544 465.133 377.144 464C379.744 462.8 382.444 462.2 385.244 462.2C388.31 462.2 391.044 462.733 393.444 463.8C395.91 464.867 397.944 466.4 399.544 468.4C401.21 470.4 402.477 472.8 403.344 475.6C404.21 478.4 404.644 481.533 404.644 485C404.644 485.867 404.61 486.733 404.544 487.6C404.544 488.4 404.477 489.1 404.344 489.7H371.544C371.877 494.9 373.477 499.033 376.344 502.1C379.277 505.1 383.077 506.6 387.744 506.6C390.077 506.6 392.21 506.267 394.144 505.6C396.144 504.867 398.044 503.933 399.844 502.8L402.744 508.2C400.61 509.533 398.244 510.7 395.644 511.7C393.044 512.7 390.077 513.2 386.744 513.2ZM371.444 483.8H397.444C397.444 478.867 396.377 475.133 394.244 472.6C392.177 470 389.244 468.7 385.444 468.7C383.71 468.7 382.044 469.033 380.444 469.7C378.91 470.367 377.51 471.367 376.244 472.7C374.977 473.967 373.91 475.533 373.044 477.4C372.244 479.267 371.71 481.4 371.444 483.8ZM436.853 513.2C433.653 513.2 430.653 512.633 427.853 511.5C425.053 510.367 422.62 508.733 420.553 506.6C418.553 504.4 416.953 501.733 415.753 498.6C414.62 495.4 414.053 491.8 414.053 487.8C414.053 483.733 414.686 480.133 415.953 477C417.22 473.8 418.92 471.1 421.053 468.9C423.186 466.7 425.653 465.033 428.453 463.9C431.32 462.767 434.32 462.2 437.453 462.2C440.653 462.2 443.386 462.767 445.653 463.9C447.92 465.033 449.92 466.367 451.653 467.9L447.453 473.3C446.053 472.033 444.553 471 442.953 470.2C441.42 469.4 439.686 469 437.753 469C435.553 469 433.52 469.467 431.653 470.4C429.786 471.267 428.186 472.533 426.853 474.2C425.52 475.867 424.453 477.867 423.653 480.2C422.92 482.467 422.553 485 422.553 487.8C422.553 490.6 422.92 493.133 423.653 495.4C424.386 497.667 425.386 499.633 426.653 501.3C427.986 502.9 429.586 504.167 431.453 505.1C433.32 505.967 435.353 506.4 437.553 506.4C439.82 506.4 441.886 505.933 443.753 505C445.686 504 447.42 502.833 448.953 501.5L452.553 507C450.353 508.933 447.92 510.467 445.253 511.6C442.586 512.667 439.786 513.2 436.853 513.2ZM464.259 512V440.8H472.359V489H472.659L493.359 463.4H502.459L486.159 482.9L504.659 512H495.659L481.459 488.6L472.359 499.2V512H464.259Z" fill="#424242"/>
</g>
<mask id="mask1_2:104" style="mask-type:alpha" maskUnits="userSpaceOnUse" x="43" y="-1" width="562" height="650">
<path id="hex border_3" d="M48.78 165.21V482.93L323.93 641.79L599.08 482.93V165.21L323.93 6.35001L48.78 165.21Z" fill="white" stroke="#5E6A97" stroke-width="11"/>
</mask>
<g mask="url(#mask1_2:104)">
<path id="check mark" d="M392.771 143.767L388.864 139.918L385.004 143.815L356.775 172.315L352.976 176.151L356.741 180.021L421.761 246.855L425.668 250.871L429.611 246.89L570.052 105.09L573.755 101.352L570.184 97.4875L541.509 66.453L537.607 62.2303L533.561 66.3152L425.208 175.718L392.771 143.767Z" fill="#164F86" stroke="white" stroke-width="11"/>
</g>
</g>
<defs>
<clipPath id="clip0_2:104">
<rect width="648" height="648" fill="white"/>
</clipPath>
</defs>
</svg>
